<svg viewBox="0 0 400 400" xmlns="http://www.w3.org/2000/svg">
<path d="M0.0970391 399.903V319.922C-2.50233 312.224 47.6855 251.839 82.677 254.438C93.6743 255.338 61.0822 252.739 50.7847 249.34C40.8538 245.607 32.0226 240.642 24.2912 234.443C16.9596 227.911 11.0943 220.446 6.69541 212.049C2.29648 203.384 0.0970391 194.22 0.0970391 184.555V71.2827C0.0970391 61.0185 2.29648 51.5541 6.69541 42.8896C11.0943 34.1584 16.9596 26.6935 24.2912 20.495C32.0226 13.9633 40.8538 8.99782 50.7847 5.59865C61.0489 1.86622 71.6796 0 82.677 0H400V79.9806L317.42 146.864C329.151 146.864 339.781 148.564 349.312 151.963C359.243 155.362 367.874 160.161 375.206 166.36C382.538 172.625 388.236 179.923 392.302 188.254C396.301 196.386 398.3 205.417 398.3 215.348L400 358.013C400 372.51 400 366.311 400 399.903C400 400.803 22.1917 21.8947 22.0917 21.9947C21.9917 22.0946 220.044 399.903 220.044 399.903"/>
</svg>
